<mxfile host="Electron" agent="Mozilla/5.0 (Windows NT 10.0; Win64; x64) AppleWebKit/537.36 (KHTML, like Gecko) draw.io/24.7.17 Chrome/128.0.6613.36 Electron/32.0.1 Safari/537.36" version="24.7.17">
  <diagram name="Page-1" id="uo_oGlrPWiuGdSqDOJDv">
    <mxGraphModel dx="1195" dy="703" grid="1" gridSize="10" guides="1" tooltips="1" connect="1" arrows="1" fold="1" page="1" pageScale="1" pageWidth="827" pageHeight="1169" math="0" shadow="0">
      <root>
        <mxCell id="0" />
        <mxCell id="1" parent="0" />
        <mxCell id="XqEZLsIJH-K9Tj1LqqFs-1" value="Start EFS Extraction job" style="ellipse;whiteSpace=wrap;html=1;aspect=fixed;" vertex="1" parent="1">
          <mxGeometry x="350" y="50" width="80" height="80" as="geometry" />
        </mxCell>
        <mxCell id="XqEZLsIJH-K9Tj1LqqFs-2" value="" style="endArrow=classic;html=1;rounded=0;exitX=0.5;exitY=1;exitDx=0;exitDy=0;" edge="1" parent="1" source="XqEZLsIJH-K9Tj1LqqFs-3">
          <mxGeometry width="50" height="50" relative="1" as="geometry">
            <mxPoint x="590" y="460" as="sourcePoint" />
            <mxPoint x="390" y="170" as="targetPoint" />
          </mxGeometry>
        </mxCell>
        <mxCell id="XqEZLsIJH-K9Tj1LqqFs-4" value="" style="endArrow=classic;html=1;rounded=0;exitX=0.5;exitY=1;exitDx=0;exitDy=0;" edge="1" parent="1" source="XqEZLsIJH-K9Tj1LqqFs-1" target="XqEZLsIJH-K9Tj1LqqFs-3">
          <mxGeometry width="50" height="50" relative="1" as="geometry">
            <mxPoint x="390" y="130" as="sourcePoint" />
            <mxPoint x="390" y="170" as="targetPoint" />
          </mxGeometry>
        </mxCell>
        <mxCell id="XqEZLsIJH-K9Tj1LqqFs-3" value="extract_data_and_metadata&lt;div&gt;_from_file&lt;/div&gt;" style="rounded=1;whiteSpace=wrap;html=1;" vertex="1" parent="1">
          <mxGeometry x="300" y="170" width="180" height="60" as="geometry" />
        </mxCell>
        <mxCell id="XqEZLsIJH-K9Tj1LqqFs-5" value="main.py" style="text;html=1;align=center;verticalAlign=middle;whiteSpace=wrap;rounded=0;" vertex="1" parent="1">
          <mxGeometry x="680" y="75" width="60" height="30" as="geometry" />
        </mxCell>
        <mxCell id="XqEZLsIJH-K9Tj1LqqFs-6" value="main.py" style="text;html=1;align=center;verticalAlign=middle;whiteSpace=wrap;rounded=0;" vertex="1" parent="1">
          <mxGeometry x="680" y="180" width="60" height="30" as="geometry" />
        </mxCell>
        <mxCell id="XqEZLsIJH-K9Tj1LqqFs-8" value="Notes" style="rounded=0;whiteSpace=wrap;html=1;" vertex="1" parent="1">
          <mxGeometry x="50" y="5" width="120" height="35" as="geometry" />
        </mxCell>
        <mxCell id="XqEZLsIJH-K9Tj1LqqFs-9" value="Workflow" style="rounded=0;whiteSpace=wrap;html=1;" vertex="1" parent="1">
          <mxGeometry x="330" y="5" width="120" height="35" as="geometry" />
        </mxCell>
        <mxCell id="XqEZLsIJH-K9Tj1LqqFs-10" value="python module" style="rounded=0;whiteSpace=wrap;html=1;" vertex="1" parent="1">
          <mxGeometry x="660" y="5" width="120" height="35" as="geometry" />
        </mxCell>
        <mxCell id="XqEZLsIJH-K9Tj1LqqFs-11" value="python main.py" style="text;html=1;align=center;verticalAlign=middle;whiteSpace=wrap;rounded=0;" vertex="1" parent="1">
          <mxGeometry x="40" y="75" width="130" height="30" as="geometry" />
        </mxCell>
        <mxCell id="XqEZLsIJH-K9Tj1LqqFs-12" value="option to process in parallel or sequentially" style="text;html=1;align=center;verticalAlign=middle;whiteSpace=wrap;rounded=0;" vertex="1" parent="1">
          <mxGeometry x="45" y="185" width="130" height="30" as="geometry" />
        </mxCell>
        <mxCell id="XqEZLsIJH-K9Tj1LqqFs-13" value="" style="rounded=1;whiteSpace=wrap;html=1;" vertex="1" parent="1">
          <mxGeometry x="180" y="270" width="410" height="540" as="geometry" />
        </mxCell>
        <mxCell id="XqEZLsIJH-K9Tj1LqqFs-14" value="" style="endArrow=classic;html=1;rounded=0;exitX=0.5;exitY=1;exitDx=0;exitDy=0;" edge="1" parent="1">
          <mxGeometry width="50" height="50" relative="1" as="geometry">
            <mxPoint x="384.5" y="230" as="sourcePoint" />
            <mxPoint x="384.5" y="270" as="targetPoint" />
          </mxGeometry>
        </mxCell>
        <mxCell id="XqEZLsIJH-K9Tj1LqqFs-15" value="file type" style="rhombus;whiteSpace=wrap;html=1;" vertex="1" parent="1">
          <mxGeometry x="352.5" y="270" width="65" height="60" as="geometry" />
        </mxCell>
        <mxCell id="XqEZLsIJH-K9Tj1LqqFs-16" value="unstructured loader (custom)" style="rounded=1;whiteSpace=wrap;html=1;" vertex="1" parent="1">
          <mxGeometry x="210" y="340" width="120" height="30" as="geometry" />
        </mxCell>
        <mxCell id="XqEZLsIJH-K9Tj1LqqFs-19" value="" style="edgeStyle=segmentEdgeStyle;endArrow=classic;html=1;curved=0;rounded=0;endSize=8;startSize=8;exitX=1;exitY=0.5;exitDx=0;exitDy=0;entryX=0.5;entryY=0;entryDx=0;entryDy=0;" edge="1" parent="1" source="XqEZLsIJH-K9Tj1LqqFs-15" target="XqEZLsIJH-K9Tj1LqqFs-21">
          <mxGeometry width="50" height="50" relative="1" as="geometry">
            <mxPoint x="780" y="430" as="sourcePoint" />
            <mxPoint x="640" y="390" as="targetPoint" />
          </mxGeometry>
        </mxCell>
        <mxCell id="XqEZLsIJH-K9Tj1LqqFs-20" value="" style="edgeStyle=segmentEdgeStyle;endArrow=classic;html=1;curved=0;rounded=0;endSize=8;startSize=8;exitX=0;exitY=0.5;exitDx=0;exitDy=0;entryX=0.5;entryY=0;entryDx=0;entryDy=0;" edge="1" parent="1" source="XqEZLsIJH-K9Tj1LqqFs-15" target="XqEZLsIJH-K9Tj1LqqFs-16">
          <mxGeometry width="50" height="50" relative="1" as="geometry">
            <mxPoint x="428" y="310" as="sourcePoint" />
            <mxPoint x="428" y="280" as="targetPoint" />
          </mxGeometry>
        </mxCell>
        <mxCell id="XqEZLsIJH-K9Tj1LqqFs-21" value="PPTX or PDF?" style="rounded=1;whiteSpace=wrap;html=1;" vertex="1" parent="1">
          <mxGeometry x="430" y="340" width="120" height="30" as="geometry" />
        </mxCell>
        <mxCell id="XqEZLsIJH-K9Tj1LqqFs-22" value="pdf" style="text;html=1;align=center;verticalAlign=middle;whiteSpace=wrap;rounded=0;" vertex="1" parent="1">
          <mxGeometry x="430" y="277" width="60" height="30" as="geometry" />
        </mxCell>
        <mxCell id="XqEZLsIJH-K9Tj1LqqFs-23" value="pptx" style="text;html=1;align=center;verticalAlign=middle;whiteSpace=wrap;rounded=0;" vertex="1" parent="1">
          <mxGeometry x="280" y="277" width="60" height="30" as="geometry" />
        </mxCell>
        <mxCell id="XqEZLsIJH-K9Tj1LqqFs-24" value="extraction/&lt;div&gt;content_extraction.py&lt;/div&gt;" style="text;html=1;align=left;verticalAlign=middle;whiteSpace=wrap;rounded=0;" vertex="1" parent="1">
          <mxGeometry x="680" y="340" width="60" height="30" as="geometry" />
        </mxCell>
        <mxCell id="XqEZLsIJH-K9Tj1LqqFs-25" value="option to process in parallel or sequentially" style="text;html=1;align=center;verticalAlign=middle;whiteSpace=wrap;rounded=0;" vertex="1" parent="1">
          <mxGeometry x="20" y="340" width="130" height="30" as="geometry" />
        </mxCell>
      </root>
    </mxGraphModel>
  </diagram>
</mxfile>
